<svg xmlns="http://www.w3.org/2000/svg" viewBox="0 0 361.85 51.35"><defs><style>.cls-1{fill:#ffffff;}.cls-2{fill:#3e9dc4;}</style></defs><g id="Layer_2" data-name="Layer 2"><g id="Layer_1-2" data-name="Layer 1"><path class="cls-1" d="M45.66,32.48a9.3,9.3,0,1,1-.1-18.54l0-8.52A17.79,17.79,0,1,0,45.7,41Z"/><path class="cls-2" d="M7.11,11.11a12.12,12.12,0,1,1,0,24.17V46.39A23.2,23.2,0,1,0,7.1,0Z"/><path class="cls-1" d="M12.8,23.2c0,4.55-2.86,8.23-6.4,8.23S0,27.75,0,23.2,2.87,15,6.4,15,12.8,18.66,12.8,23.2Z"/><path class="cls-2" d="M50.45,23.2c0,3.11-2,5.62-4.37,5.62s-4.37-2.51-4.37-5.62,2-5.62,4.37-5.62S50.45,20.1,50.45,23.2Z"/><path class="cls-2" d="M77.06,6.09c9.19,0,15.8,6.75,15.8,17.18s-6.61,17.18-15.8,17.18S61.31,33.69,61.31,23.27,67.88,6.09,77.06,6.09Zm0,28.5c5.57,0,9.19-4.33,9.19-11.32,0-6.28-3.62-11.38-9.19-11.38s-9.14,4.38-9.14,11.38S71.49,34.59,77.06,34.59Z"/><path class="cls-2" d="M105.47,14.51c4.38.1,8,1.62,10.28,5.33a16.26,16.26,0,0,1,1.85,8c-.09,3.19-.61,6.19-2.61,8.76a11.3,11.3,0,0,1-8.71,3.86,8.46,8.46,0,0,1-4.81-1.24V51.35h-6V20.55a6,6,0,0,1,6-6Zm-4,20a18.4,18.4,0,0,0,4.24.62,5.27,5.27,0,0,0,4.57-2.29,9.36,9.36,0,0,0,1.09-4.95c0-2-.19-4.9-1.71-6.47a6.66,6.66,0,0,0-4.76-1.52h-2a1.43,1.43,0,0,0-1.43,1.38Z"/><path class="cls-2" d="M133.21,35.31a13.54,13.54,0,0,0,6.57-1.57h.76V39.4a25.49,25.49,0,0,1-7.8,1.05c-3.53,0-7.24-.91-9.9-3.33A12.38,12.38,0,0,1,119,27.6a15.85,15.85,0,0,1,2.76-8.85,10.91,10.91,0,0,1,8.9-4.29c4.52,0,8.14,2.1,9.9,6.28a21.58,21.58,0,0,1,1.24,9.1H125.5C126.12,33.79,129.74,35.4,133.21,35.31Zm-7.66-10.47h10.14c-.29-3.14-1.86-5.09-4.9-5.14S125.84,22,125.55,24.84Z"/><path class="cls-2" d="M166.71,23.74V39.92h-6V24.36c.05-2.38-1.1-4.33-3.76-4.33a12.17,12.17,0,0,0-6.19,2V39.92h-6V15h5.85V16.6a17,17,0,0,1,7.28-2.14C163.05,14.46,166.71,18.17,166.71,23.74Z"/><path class="cls-1" d="M170.09,13a6.43,6.43,0,0,1,6.43-6.42h16.66v5.81H178a1.52,1.52,0,0,0-1.52,1.47V19.6h12.32v5.57H176.52v8.95h16.66v5.8H170.09Z"/><path class="cls-1" d="M195.55,15h7.38l4.71,7.33L212.49,15H219l-8.19,11.66,9.42,13.27h-7.37l-6-9.23-6.09,9.23h-6.62l9.47-13.46Z"/><path class="cls-1" d="M237.76,21.51c-1.57-1.24-4.37-1.67-6.52-1.67a5.63,5.63,0,0,0-4.8,2.09A9.43,9.43,0,0,0,225,27.5,9.23,9.23,0,0,0,226.06,32a5.55,5.55,0,0,0,5.09,3,14.89,14.89,0,0,0,6.71-1.43h.71v5.14a16.56,16.56,0,0,1-7.52,1.67,12.21,12.21,0,0,1-9.94-5.14,13.28,13.28,0,0,1-2.34-7.85A13.65,13.65,0,0,1,222,18.27a11.51,11.51,0,0,1,8.9-3.81,19.41,19.41,0,0,1,7.66,1.67v5.38Z"/><path class="cls-1" d="M247.47,16.56a15.17,15.17,0,0,1,7.18-2.1c5,0,8.81,3.86,8.81,9.24V39.92h-6V24.22c0-2.43-1.1-4.33-3.76-4.33a12.44,12.44,0,0,0-6.19,1.95V39.92h-6.05V5h6.05Z"/><path class="cls-1" d="M281.59,37.64a9.35,9.35,0,0,1-6.71,2.86c-4.95,0-8.61-3.34-8.76-8.19a8,8,0,0,1,7.19-8.09L281.49,23c-.18-2.43-4-3.28-5.66-3.28a16.41,16.41,0,0,0-6.61,1.47h-.67V15.7a26.78,26.78,0,0,1,7.38-1.24c5.71,0,11.28,2.14,11.47,8.43v17h-5.81ZM276,35.17a10.73,10.73,0,0,0,5.37-1.72V27.84c-2,.38-4.14.57-6.23,1-1.67.33-2.9,1.23-2.9,3.14C272.22,34.31,274,35.17,276,35.17Z"/><path class="cls-1" d="M312.43,23.74V39.92h-6.05V24.36c.05-2.38-1.09-4.33-3.76-4.33a12.11,12.11,0,0,0-6.18,2V39.92h-6.05V15h5.85V16.6a17,17,0,0,1,7.29-2.14C308.76,14.46,312.43,18.17,312.43,23.74Z"/><path class="cls-1" d="M336.93,38.69c0,8.85-4.42,12.61-12.8,12.66a20.58,20.58,0,0,1-7.33-1.57V44.54h.76A18.38,18.38,0,0,0,324.18,46c3.66,0,6.71-2.15,6.71-5.33V39.26a9.36,9.36,0,0,1-4.81,1.19,11.8,11.8,0,0,1-8.9-3.86,13.51,13.51,0,0,1-2.66-8.71,16,16,0,0,1,1.9-8.09c2.24-3.76,6.14-5.28,10.52-5.33h3.85a6.18,6.18,0,0,1,6.14,6.09Zm-7.47-18.85h-2.14a6.58,6.58,0,0,0-4.76,1.62c-1.62,1.57-1.76,4.28-1.81,6.42A9.45,9.45,0,0,0,322,33a4.93,4.93,0,0,0,4.52,2.23,17.33,17.33,0,0,0,4.38-.57V21.32A1.45,1.45,0,0,0,329.46,19.84Z"/><path class="cls-1" d="M353.21,35.31a13.5,13.5,0,0,0,6.56-1.57h.76V39.4a25.45,25.45,0,0,1-7.8,1.05c-3.52,0-7.24-.91-9.9-3.33A12.42,12.42,0,0,1,339,27.6a16,16,0,0,1,2.76-8.85,10.91,10.91,0,0,1,8.9-4.29c4.52,0,8.14,2.1,9.9,6.28a21.58,21.58,0,0,1,1.24,9.1H345.49C346.11,33.79,349.73,35.4,353.21,35.31Zm-7.67-10.47h10.14c-.28-3.14-1.86-5.09-4.9-5.14S345.83,22,345.54,24.84Z"/></g></g></svg>